<?xml version="1.0" encoding="utf-8"?>
<!-- Generator: Adobe Illustrator 19.2.1, SVG Export Plug-In . SVG Version: 6.00 Build 0)  -->
<svg version="1.1" xmlns="http://www.w3.org/2000/svg" xmlns:xlink="http://www.w3.org/1999/xlink" x="0px" y="0px"
	 viewBox="0 0 800 800" style="enable-background:new 0 0 800 800;" xml:space="preserve">
<style type="text/css">
	.st0{fill:#E6E7E8;}
	.st1{fill:#F1F2F2;}
	.st2{fill:#D1D3D4;}
	.st3{fill:#58595B;}
	.st4{fill-rule:evenodd;clip-rule:evenodd;fill:#58595B;}
</style>
<g id="_x31_">
	<rect x="533" class="st0" width="269" height="269"/>
	<rect x="-2.7" y="269" class="st0" width="269" height="269"/>
	<rect x="263.8" y="268.8" class="st1" width="269" height="269"/>
	<rect x="533" y="268.2" class="st2" width="269" height="269"/>
	<rect x="-2.3" y="537" class="st2" width="269" height="269"/>
	<rect x="264" y="537.2" class="st0" width="269" height="269"/>
	<rect x="533" y="537.1" class="st1" width="269" height="269"/>
	<rect x="-2.3" y="6.6" class="st1" width="269" height="269"/>
	<rect x="264" class="st2" width="269" height="269"/>
</g>
<g id="Layer_3">
	<g>
		<polygon class="st3" points="385.3,597.9 377.7,604.8 377.7,696 385.3,702.9 		"/>
		<polygon class="st3" points="400.7,602 393.1,608.3 393.1,691 400.7,697.3 		"/>
		<polygon class="st3" points="416.1,610.7 408.5,615.9 408.5,683.8 416.1,689 		"/>
		<polygon class="st3" points="431.5,618.3 423.9,622.5 423.9,677.1 431.5,681.2 		"/>
		<rect x="439.1" y="616.3" class="st3" width="10.4" height="85.9"/>
		<rect x="453" y="621.7" class="st3" width="3.9" height="60.9"/>
		<rect x="459.5" y="635.6" class="st3" width="9.8" height="29.5"/>
		<path class="st3" d="M373.6,705.4V592.3H366v113.2h-4.3V592.3h-20.2c-5.4,0-9.8,4.4-9.8,9.8v104c0,5.4,4.4,9.8,9.8,9.8h7.4v0.4
			h129.7v-10.8H373.6z"/>
	</g>
	<g>
		<polygon class="st3" points="188.6,424.5 192,424.5 192,369.5 188.6,369.5 188.6,349.9 144.2,349.9 144.2,445.8 140.4,445.8 
			140.4,358.9 123.5,358.9 123.5,348.7 112.1,348.7 112.1,445.8 110.7,445.8 112,445.4 76.9,354.5 69.4,357.4 103.5,445.8 
			59.4,445.8 59.4,456.7 198.2,456.7 198.2,445.8 188.6,445.8 		"/>
		<rect x="194.3" y="382.7" class="st3" width="12.1" height="29.5"/>
	</g>
	<g>
		<path class="st3" d="M730.2,140.3c0-7.6-4.5-13.3-12.8-13.3c-8.3,0-15,0.5-15,9.8c0,5.8,0.2,8.4,0.2,8.4h-18.1v-7.3l-6,0l0.1,54.4
			c16.1,0,30.2,0,33,0c2.8,2.9,5.3,4.1,11.3,4C744,195.8,730.2,147.9,730.2,140.3z M716.1,132.9c4.6,0,8.3,2.6,8.3,5.8
			c0,3.2-3.7,6.6-8.3,6.6c-4.6,0-8.3-3.4-8.3-6.6C707.9,135.5,711.6,132.9,716.1,132.9z M707,157.8h6.4v6.8H707V157.8z M716.7,157.9
			h6.4v6.8h-6.4V157.9z M697.5,157.8h6.4v6.8h-6.4V157.8z M687.8,157.9h6.4v6.8h-6.4V157.9z M727.7,186h-40v-18.4h40V186z"/>
		<rect x="628.3" y="79.2" class="st3" width="66.2" height="25.5"/>
		<polygon class="st3" points="692.5,73.2 689.6,73.2 689.6,66.3 634.1,66.3 634.1,73.2 628.1,73.2 628.1,77.5 692.5,77.5 		"/>
		<rect x="629.8" y="106.3" class="st3" width="63.1" height="3.5"/>
		<rect x="632.5" y="111.9" class="st3" width="59" height="3.5"/>
		<rect x="707.9" y="158.6" class="st3" width="4.8" height="5.1"/>
		<rect x="717.5" y="158.7" class="st3" width="4.8" height="5.1"/>
		<rect x="688.6" y="158.7" class="st3" width="4.8" height="5.1"/>
		<rect x="698.3" y="158.6" class="st3" width="4.8" height="5.1"/>
		<path class="st3" d="M629.8,166.2c-4.3,0-7.9,3.5-7.9,7.9c0,4.3,3.5,7.9,7.9,7.9c4.3,0,7.9-3.5,7.9-7.9
			C637.7,169.8,634.1,166.2,629.8,166.2z M629.8,178.4c-2.4,0-4.3-1.9-4.3-4.3c0-2.4,1.9-4.3,4.3-4.3c2.4,0,4.3,1.9,4.3,4.3
			C634.1,176.5,632.2,178.4,629.8,178.4z"/>
		<path class="st3" d="M716.1,143.1c3.8,0,6.9-2,6.9-4.4c0-2.4-3.1-4.4-6.9-4.4c-3.8,0-6.9,2-6.9,4.4
			C709.3,141.1,712.3,143.1,716.1,143.1z M716.1,136.3c2,0,3.6,1.1,3.6,2.4c0,1.3-1.6,2.4-3.6,2.4c-2,0-3.6-1.1-3.6-2.4
			C712.6,137.4,714.2,136.3,716.1,136.3z"/>
		<rect x="632.6" y="117.8" class="st3" width="58.8" height="12"/>
		<rect x="632.5" y="131.1" class="st3" width="58.8" height="5"/>
		<path class="st3" d="M647.3,137.7l-0.2,54.5c9.1,0,19.8,0,29.9,0l-0.1-54.4L647.3,137.7z M658.4,185.9H652v-23.5h6.4V185.9z
			 M673.2,185.9h-6.8v-23.5h6.8V185.9z"/>
		<path class="st3" d="M639.9,145.1l-11.4,0.1l0.1,5.1c0,0-14.3-1.2-14.3,21.1c0,7.3-2.1,20.8,9.9,20.8c1.6,0,10.1,0,21.2,0
			l0.2-54.5l-5.8,0L639.9,145.1z M629.8,184.5c-5.7,0-10.3-4.6-10.3-10.3c0-5.7,4.6-10.3,10.3-10.3c5.7,0,10.3,4.6,10.3,10.3
			C640.1,179.8,635.5,184.5,629.8,184.5z"/>
	</g>
	<g>
		<path class="st3" d="M185.9,645l-6,0v-3h2v-5.6h-9.3v5.6h2.3v3.1l-7,0v-3.3h2v-5.5h-9.3v5.5h2.3v3.3l-4.7,0l-2.3-8.9l-8,0v-9.9
			h6.5v-8.5h-3.1v-5.4l11.4-14.8v-21.9h-27.7v0h-27.7v21.9l11.4,14.8v5.4h-3.1v8.5h6.5v10l-5.9,0l-2.8,8.7l-3.4,0v-2.9h2v-5.6h-9.3
			v5.6h2.3v2.9l-11.6,0v-3.1h4.9v-5.4H78.5v5.4h5v3.1l-6.1,0c-4.5,0-8.1,3.6-8.1,8.1v59.6c0,4.5,3.6,8.1,8.1,8.1h39.5
			c5.3,3.9,11.8,6.2,18.8,6.2c7.1,0,13.6-2.3,18.8-6.2h31.5c4.5,0,8.1-3.6,8.1-8.1V653C194,648.6,190.4,645,185.9,645z M113.8,593.9
			v-13.4h43v13.4H113.8z M94.1,707.5h-6.3v-47.7h6.3V707.5z M136.6,716.9c-16.5,0-29.9-13.4-29.9-29.9c0-16.5,13.4-29.9,29.9-29.9
			s29.9,13.4,29.9,29.9C166.4,703.6,153.1,716.9,136.6,716.9z M164.9,659.4c-1.9,0-3.5-1.6-3.5-3.5c0-1.9,1.6-3.5,3.5-3.5
			c1.9,0,3.5,1.6,3.5,3.5C168.4,657.9,166.8,659.4,164.9,659.4z M171.8,651.7h17.7v8.4h-17.7V651.7z M172,695.2h17.5v6.8H172V695.2z
			 M189.6,711.2h-17.5v-6.8h17.5V711.2z"/>
		<path class="st3" d="M136.6,663.6c-13,0-23.5,10.6-23.5,23.5c0,13,10.6,23.5,23.5,23.5c13,0,23.5-10.6,23.5-23.5
			C160.1,674.1,149.5,663.6,136.6,663.6z M136.6,706.2c-10.5,0-19.1-8.6-19.1-19.1c0-10.5,8.6-19.1,19.1-19.1
			c10.5,0,19.1,8.6,19.1,19.1C155.7,697.6,147.1,706.2,136.6,706.2z"/>
		<path class="st3" d="M136.6,669.8c-9.5,0-17.3,7.8-17.3,17.3c0,9.5,7.7,17.3,17.3,17.3c9.5,0,17.3-7.8,17.3-17.3
			C153.8,677.6,146.1,669.8,136.6,669.8z M136.6,702.1c-8.3,0-15.1-6.8-15.1-15.1c0-8.3,6.8-15.1,15.1-15.1
			c8.3,0,15.1,6.8,15.1,15.1C151.6,695.4,144.9,702.1,136.6,702.1z"/>
	</g>
	<g>
		<path class="st3" d="M708.5,635.2c-16.4,0-29.8,13.3-29.8,29.8c0,16.4,13.3,29.8,29.8,29.8c16.4,0,29.8-13.3,29.8-29.8
			C738.3,648.5,724.9,635.2,708.5,635.2z M708.5,690.8c-14.3,0-25.9-11.6-25.9-25.9c0-14.3,11.6-25.9,25.9-25.9s25.9,11.6,25.9,25.9
			C734.4,679.2,722.8,690.8,708.5,690.8z"/>
		<path class="st3" d="M708.5,642.2c-12.6,0-22.8,10.2-22.8,22.8c0,12.6,10.2,22.8,22.8,22.8s22.8-10.2,22.8-22.8
			C731.3,652.4,721.1,642.2,708.5,642.2z M708.5,685.8c-11.5,0-20.8-9.3-20.8-20.8c0-11.5,9.3-20.8,20.8-20.8
			c11.5,0,20.8,9.3,20.8,20.8C729.3,676.4,720,685.8,708.5,685.8z"/>
		<path class="st3" d="M644.9,604.5h-15.1v5.6h-7.2V605h-15.1v5.1h-10.9c-2.9,0-5.2,2.3-5.2,5.2v5c-3.7,0.6-8.2,4-11.3,16.5
			l-0.8-0.1c-1.3-0.2-2.6,0.7-2.9,2l-0.1,0.8c-0.2,1.1,0.4,2.2,1.4,2.7c0.3,0.3,0.7,0.6,1.1,0.7c-0.2,1.1-0.4,2.3-0.6,3.6l-0.3,0
			c-1.4-0.2-2.6,0.8-2.8,2.1l-0.1,0.8c-0.2,1.4,0.8,2.6,2.1,2.8l0.3,0c-0.5,4.7-0.8,10-1,16.2c-1.4,44,1.6,42.5,14.7,48.8
			c13.1,6.3,20.2,7.8,24.6,7.8c4.4,0,6.7-4.6,1.1-7.2c-5.5-2.7-31.3,0.3-33.2-17.9c0-14.8-0.8-29.9,0.2-41.9
			c0.1-1.7,0.3-3.3,0.5-4.9l0.3,0c1.4,0.2,2.6-0.8,2.8-2.1l0.1-0.8c0.2-1.4-0.8-2.6-2.1-2.8l-0.3,0c0.2-1.1,0.3-2.2,0.5-3.3l0.8,0.1
			c1.3,0.2,2.6-0.7,2.9-2l0.1-0.8c0.2-1.1-0.4-2.2-1.4-2.7c-0.3-0.3-0.7-0.6-1.1-0.7c1.3-5.6,2.9-9.4,4.5-11.1v75.1
			c0,2.9,2.3,5.2,5.2,5.2h49.9v-97.2h-1.6V604.5z"/>
		<path class="st3" d="M752.2,610.1h-68.9V603h-27.6v7.1h-6.2v97.2h102.7c2.9,0,5.2-2.3,5.2-5.2v-86.8
			C757.4,612.4,755.1,610.1,752.2,610.1z M708.5,701.1c-19.9,0-36.1-16.2-36.1-36.1c0-19.9,16.2-36.1,36.1-36.1
			c19.9,0,36.1,16.2,36.1,36.1C744.6,684.9,728.4,701.1,708.5,701.1z M741.1,636.8c-2.3,0-4.1-1.9-4.1-4.1c0-2.3,1.9-4.1,4.1-4.1
			c2.3,0,4.1,1.9,4.1,4.1C745.3,635,743.4,636.8,741.1,636.8z M751.1,624.6h-35.5v-8.8h35.5V624.6z"/>
	</g>
	<g>
		<path class="st3" d="M56.7,104.7v74.6c0,6.6,5.4,12,12,12h46.2c7,4.6,15.4,7.3,24.3,7.3c9,0,17.3-2.7,24.3-7.3H195
			c6.6,0,12-5.4,12-12v-74.6H56.7z M189.5,107.9c2.1,0,3.8,1.7,3.8,3.8c0,2.1-1.7,3.8-3.8,3.8c-2.1,0-3.8-1.7-3.8-3.8
			C185.7,109.6,187.4,107.9,189.5,107.9z M83.9,117.6c0,3.5,0,61,0,61h-7.7c0,0,0-58.2,0-63c0-4.8,9.7-8.3,11.5-6.7
			C89.4,110.6,83.9,114.1,83.9,117.6z M138.9,187.6c-21.5,0-39-17.4-39-39c0-21.5,17.4-39,39-39c21.5,0,39,17.4,39,39
			C177.9,170.1,160.4,187.6,138.9,187.6z M199.1,177.2h-16.8V168h16.8V177.2z"/>
		<path class="st3" d="M195,92.5c0,0-0.3,0-0.7,0v-9.8h-25v9.8c-6.1-0.7-11-14.8-11-14.8h-39.3c0,0-5.4,14.9-11.5,14.9
			c0,0-0.1,0-0.1,0v-9.3h-25v9.3c-7.6,0-13.8,0-13.8,0c-5.9,0-10.8,4.3-11.8,9.9h149.9C205.8,96.8,200.9,92.5,195,92.5z M154.8,94.3
			H125V83.1h29.8V94.3z"/>
		<path class="st3" d="M139.1,128.3c-11.4,0-20.6,9.2-20.6,20.6c0,11.4,9.2,20.6,20.6,20.6c11.4,0,20.6-9.2,20.6-20.6
			C159.7,137.6,150.4,128.3,139.1,128.3z"/>
		<path class="st3" d="M138.9,120.8c-15.3,0-27.8,12.4-27.8,27.8c0,15.3,12.4,27.8,27.8,27.8c15.4,0,27.8-12.4,27.8-27.8
			C166.7,133.2,154.3,120.8,138.9,120.8z M139.1,171.4c-12.4,0-22.4-10.1-22.4-22.4c0-12.4,10.1-22.4,22.4-22.4
			c12.4,0,22.4,10.1,22.4,22.4C161.5,161.3,151.5,171.4,139.1,171.4z"/>
	</g>
	<g>
		<path class="st4" d="M469,433.8H341c-1.1,0-2,0.9-2,2v19.4c0,1.1,0.9,2,2,2h128c1.1,0,2-0.9,2-2v-19.4
			C471.1,434.7,470.1,433.8,469,433.8z M463.7,448.6H347.5v-4.1h116.2V448.6z"/>
		<path class="st4" d="M475.2,427.6H335.3c-2.2,0-4,1.8-4,4V459c0,2.2,1.8,4,4,4h139.9c2.2,0,4-1.8,4-4v-27.3
			C479.2,429.4,477.4,427.6,475.2,427.6z M472.7,455.2c0,2-1.7,3.7-3.7,3.7H341c-2,0-3.7-1.7-3.7-3.7v-19.4c0-2,1.7-3.7,3.7-3.7h128
			c2,0,3.7,1.7,3.7,3.7V455.2z"/>
		<path class="st4" d="M346,363.2h116.7c1.2,0,2.2-1,2.2-2.2v-20.3c0-1.2-1-2.2-2.2-2.2H346c-1.2,0-2.2,1-2.2,2.2v20.3
			C343.8,362.3,344.8,363.2,346,363.2z M428.4,343.4c0-1.2,1-2.2,2.2-2.2H460c1.2,0,2.2,1,2.2,2.2v15c0,1.2-1,2.2-2.2,2.2h-29.3
			c-1.2,0-2.2-1-2.2-2.2V343.4z"/>
		<path class="st4" d="M341.4,368.4h125.9c2.2,0,4-1.8,4-4V337c0-2.2-1.8-4-4-4H341.4c-2.2,0-4,1.8-4,4v27.3
			C337.4,366.6,339.2,368.4,341.4,368.4z M342.2,340.7c0-2.1,1.7-3.8,3.8-3.8h116.7c2.1,0,3.8,1.7,3.8,3.8v20.3
			c0,2.1-1.7,3.8-3.8,3.8H346c-2.1,0-3.8-1.7-3.8-3.8V340.7z"/>
		<path class="st4" d="M405.9,415.5c9.3,0,16.9-7.6,16.9-16.9c0-9.3-7.6-16.9-16.9-16.9c-9.3,0-16.9,7.6-16.9,16.9
			C389,407.9,396.6,415.5,405.9,415.5z M405.9,384.2c7.9,0,14.4,6.5,14.4,14.4c0,7.9-6.5,14.4-14.4,14.4c-7.9,0-14.4-6.5-14.4-14.4
			C391.5,390.7,398,384.2,405.9,384.2z"/>
		<path class="st4" d="M405.9,412.2c7.5,0,13.6-6.1,13.6-13.6c0-7.5-6.1-13.6-13.6-13.6c-7.5,0-13.6,6.1-13.6,13.6
			C392.3,406.1,398.4,412.2,405.9,412.2z"/>
		<path class="st4" d="M464.9,424.9v-53.9H344.2v53.9H464.9z M437.5,377.7c0-1.3,1.1-2.4,2.4-2.4h16.3c1.3,0,2.4,1.1,2.4,2.4v15.9
			c0,1.3-1.1,2.4-2.4,2.4h-16.3c-1.3,0-2.4-1.1-2.4-2.4V377.7z M437.1,402c0-1.3,1.1-2.4,2.4-2.4h16.3c1.3,0,2.3,1.1,2.3,2.4v4.3
			c0,1.3-1.1,2.4-2.3,2.4h-16.3c-1.3,0-2.4-1.1-2.4-2.4V402z M405.9,377.6c11.6,0,21,9.4,21,21c0,11.6-9.4,21-21,21
			c-11.6,0-21-9.4-21-21C384.9,387,394.3,377.6,405.9,377.6z M377.9,416.1h-26.3v-5.8h26.3V416.1z M374.1,400.7c2,0,3.6,1.6,3.6,3.6
			c0,2-1.6,3.6-3.6,3.6c-2,0-3.6-1.6-3.6-3.6C370.5,402.3,372.1,400.7,374.1,400.7z M364.6,400.5c2,0,3.6,1.6,3.6,3.6
			c0,2-1.6,3.6-3.6,3.6c-2,0-3.6-1.6-3.6-3.6C361,402.1,362.6,400.5,364.6,400.5z M355,400.5c2,0,3.6,1.6,3.6,3.6
			c0,2-1.6,3.6-3.6,3.6c-2,0-3.6-1.6-3.6-3.6C351.4,402.1,353,400.5,355,400.5z"/>
	</g>
	<g>
		<circle class="st3" cx="635.2" cy="430.8" r="2.1"/>
		<path class="st3" d="M673.1,375.9c-16.4,0-29.7,13.3-29.7,29.7c0,16.4,13.3,29.7,29.7,29.7c16.4,0,29.7-13.3,29.7-29.7
			C702.8,389.2,689.5,375.9,673.1,375.9z M673.5,428.4c-12.5,0-22.6-10.1-22.6-22.6c0-12.5,10.1-22.6,22.6-22.6
			c12.5,0,22.6,10.1,22.6,22.6C696.1,418.3,686,428.4,673.5,428.4z"/>
		<path class="st3" d="M741,359.3v-2.7h6.5v-11.2h-20.7v11.2h5.9v2.7l-10.3,0v-13.9l-63.9,0v7.5h-6v-1.8h3.2v-5.5h-10.3v5.5h2.9v1.8
			H641v5.1c0,0-5.5,0-12.8,0v-2.5h5.7v-9.8h-18.3v9.8h5.2v2.5c-4.1,0-8.3,0-12.1,0v-2.5h5.7v-9.8h-18.3v9.8h5.2v2.5
			c-2.4,0-4.2,0-5.2,0v73.5c0,7,5.6,12.7,12.5,12.7h126.3c6.9,0,12.5-5.7,12.5-12.7v-72.2L741,359.3z M602.9,367.5
			c-1.8,0-3.2-1.4-3.2-3.2c0-1.8,1.4-3.2,3.2-3.2c1.8,0,3.2,1.4,3.2,3.2C606.1,366.1,604.6,367.5,602.9,367.5z M612.9,367.6
			c-1.8,0-3.2-1.4-3.2-3.2c0-1.8,1.4-3.2,3.2-3.2c1.8,0,3.2,1.4,3.2,3.2C616.1,366.2,614.6,367.6,612.9,367.6z M622.6,367.8
			c-1.8,0-3.2-1.4-3.2-3.2c0-1.8,1.4-3.2,3.2-3.2c1.8,0,3.2,1.4,3.2,3.2C625.8,366.4,624.4,367.8,622.6,367.8z M732.9,362.8
			c1.8,0,3.2,1.4,3.2,3.2c0,1.8-1.4,3.2-3.2,3.2c-1.8,0-3.2-1.4-3.2-3.2C729.7,364.3,731.1,362.8,732.9,362.8z M665.3,350.4H686v9.2
			h-20.7V350.4z M673.1,443.1c-12.2,0-23-5.8-29.8-14.7l-9,6.9l-3.7-4.8l9.4-7.2c-2.8-5.3-4.4-11.3-4.4-17.7
			c0-20.7,16.8-37.5,37.5-37.5c20.7,0,37.5,16.8,37.5,37.5C710.6,426.3,693.8,443.1,673.1,443.1z M714.8,359.5h-20.7v-9.2h20.7
			V359.5z M742,428.8h-20.7v-9.2H742V428.8z M742.5,369.1c-1.8,0-3.2-1.4-3.2-3.2c0-1.8,1.4-3.2,3.2-3.2c1.8,0,3.2,1.4,3.2,3.2
			C745.7,367.7,744.3,369.1,742.5,369.1z"/>
	</g>
	<g>
		<polygon class="st4" points="361.3,84.6 352.9,84.6 352.9,81.3 347.2,81.3 347.2,84.6 338.7,84.6 338.7,87.9 361.3,87.9 		"/>
		<polygon class="st4" points="476.2,84.5 464.2,84.5 464.2,80.4 458.5,80.4 458.5,84.5 446.5,84.5 446.5,87.8 476.2,87.8 		"/>
		<path class="st4" d="M408.4,124.3c-17.9,0-32.5,14.6-32.5,32.5c0,17.9,14.6,32.5,32.5,32.5c17.9,0,32.5-14.6,32.5-32.5
			C440.9,138.9,426.3,124.3,408.4,124.3z M408.4,179.9c-12.7,0-23.1-10.4-23.1-23.1c0-12.7,10.4-23.1,23.1-23.1s23.1,10.4,23.1,23.1
			C431.5,169.5,421.1,179.9,408.4,179.9z"/>
		<path class="st4" d="M465.4,123.5l0.1-22H347.1v22.1l24.7,0l0,0.4l0.9,16.7c6.2-13.9,19.9-23.6,35.9-23.6
			c16.7,0,31,10.6,36.7,25.6l1.4-19.2L465.4,123.5z M375.1,117.8h-22.4v-11.2h22.4V117.8z M432.5,115c-1.8,0-3.3-1.5-3.3-3.3
			c0-1.8,1.5-3.3,3.3-3.3c1.8,0,3.3,1.5,3.3,3.3C435.8,113.5,434.3,115,432.5,115z M438.9,117.5v-11.2h22.4v11.2H438.9z"/>
		<path class="st4" d="M476.2,92.1l0-3.4h0v-0.1h-29.7v0.1h0l0,3.2h-14.3V76.7c0-1.7-2.4-3.1-5.3-3.1h-43.3c-2.9,0-5.3,1.4-5.3,3.1
			v15.2h-14.6l-2.6-3.1h-22.8l-2.7,3.2l-4.9,0.1V189l9.8,0.6h33.6v0h0.9v0h0.6c8.2,8.7,19.8,14.1,32.6,14.1
			c12.9,0,24.4-5.4,32.6-14.1h0.7l0,0h0.9v0h27.5l9.7-0.4V92.3L476.2,92.1z M386,80.2h38.5v11.7H386V80.2z M408.6,197.2
			c-21.8,0-39.4-17.9-39.4-40.1c0-5.1,1-10,2.7-14.5l-1-18.2l-24.8,0v-23.9h120.3l-0.2,23.8l-18.6,0l-1.5,20.4
			c1.2,3.9,1.9,8,1.9,12.4C448,179.3,430.4,197.2,408.6,197.2z M475.3,180.3h-21.4v-9.6h21.4V180.3z M475.5,166.3h-21.4v-7h21.4
			V166.3z"/>
	</g>
	<g>
		<g>
			<path class="st3" d="M306.3,783.3v-0.2c-0.3,0.3-0.5,0.6-0.8,0.7c-0.3,0.2-0.5,0.3-0.8,0.4c-0.3,0.1-0.6,0.1-1,0.1
				c-0.5,0-0.9-0.1-1.3-0.3c-0.4-0.2-0.8-0.5-1.1-0.9c-0.3-0.4-0.5-0.8-0.7-1.3c-0.2-0.5-0.2-1.1-0.2-1.6c0-1.2,0.3-2.2,0.9-2.9
				c0.6-0.7,1.4-1,2.4-1c0.6,0,1.1,0.1,1.5,0.3c0.4,0.2,0.8,0.5,1.2,0.9v-2.9c0-0.4,0.1-0.7,0.2-0.9s0.4-0.3,0.7-0.3
				c0.3,0,0.5,0.1,0.7,0.3c0.2,0.2,0.2,0.5,0.2,0.8v8.8c0,0.4-0.1,0.7-0.3,0.9c-0.2,0.2-0.4,0.3-0.7,0.3c-0.3,0-0.5-0.1-0.7-0.3
				C306.4,783.9,306.3,783.6,306.3,783.3z M302.4,780.3c0,0.5,0.1,1,0.3,1.4c0.2,0.4,0.4,0.7,0.7,0.9s0.6,0.3,1,0.3
				c0.3,0,0.7-0.1,1-0.3c0.3-0.2,0.5-0.5,0.7-0.8c0.2-0.4,0.3-0.8,0.3-1.4c0-0.5-0.1-1-0.3-1.4c-0.2-0.4-0.4-0.7-0.7-0.9
				c-0.3-0.2-0.6-0.3-1-0.3c-0.4,0-0.7,0.1-1,0.3c-0.3,0.2-0.5,0.5-0.7,0.9C302.4,779.4,302.4,779.8,302.4,780.3z"/>
			<path class="st3" d="M315.7,780.8h-3.9c0,0.5,0.1,0.9,0.3,1.2c0.2,0.3,0.4,0.6,0.7,0.8c0.3,0.2,0.6,0.3,1,0.3
				c0.2,0,0.5,0,0.7-0.1c0.2-0.1,0.4-0.1,0.6-0.3c0.2-0.1,0.4-0.2,0.5-0.4c0.2-0.1,0.4-0.3,0.6-0.6c0.1-0.1,0.3-0.1,0.4-0.1
				c0.2,0,0.4,0.1,0.5,0.2c0.1,0.1,0.2,0.3,0.2,0.5c0,0.2-0.1,0.4-0.2,0.6c-0.1,0.2-0.4,0.5-0.6,0.7c-0.3,0.2-0.6,0.4-1.1,0.5
				c-0.4,0.1-0.9,0.2-1.5,0.2c-1.3,0-2.3-0.4-3-1.1c-0.7-0.7-1.1-1.7-1.1-3c0-0.6,0.1-1.1,0.3-1.6c0.2-0.5,0.4-0.9,0.8-1.3
				c0.3-0.4,0.7-0.6,1.2-0.8c0.5-0.2,1-0.3,1.6-0.3c0.8,0,1.4,0.2,2,0.5c0.6,0.3,1,0.8,1.3,1.3c0.3,0.5,0.4,1.1,0.4,1.6
				c0,0.5-0.1,0.8-0.4,1C316.6,780.8,316.2,780.8,315.7,780.8z M311.8,779.7h3.6c0-0.7-0.2-1.2-0.6-1.5c-0.3-0.3-0.7-0.5-1.3-0.5
				c-0.5,0-0.9,0.2-1.2,0.5C312.1,778.5,311.9,779,311.8,779.7z"/>
			<path class="st3" d="M325.4,781.8c0,0.5-0.1,1-0.4,1.4c-0.3,0.4-0.7,0.7-1.2,0.9c-0.5,0.2-1.2,0.3-1.9,0.3
				c-0.7,0-1.3-0.1-1.8-0.3c-0.5-0.2-0.9-0.5-1.1-0.8c-0.2-0.3-0.4-0.7-0.4-1c0-0.2,0.1-0.4,0.2-0.6c0.2-0.2,0.4-0.2,0.6-0.2
				c0.2,0,0.4,0.1,0.5,0.2c0.1,0.1,0.2,0.2,0.3,0.4c0.2,0.4,0.4,0.6,0.7,0.8c0.3,0.2,0.7,0.3,1.2,0.3c0.4,0,0.7-0.1,1-0.3
				c0.3-0.2,0.4-0.4,0.4-0.6c0-0.4-0.1-0.6-0.4-0.8c-0.3-0.2-0.7-0.3-1.3-0.5c-0.7-0.2-1.2-0.3-1.7-0.5c-0.4-0.2-0.8-0.4-1-0.7
				c-0.3-0.3-0.4-0.7-0.4-1.1c0-0.4,0.1-0.8,0.4-1.1c0.2-0.4,0.6-0.6,1.1-0.8c0.5-0.2,1-0.3,1.7-0.3c0.5,0,1,0.1,1.4,0.2
				c0.4,0.1,0.8,0.3,1,0.4c0.3,0.2,0.5,0.4,0.6,0.6c0.1,0.2,0.2,0.4,0.2,0.6c0,0.2-0.1,0.4-0.2,0.6c-0.2,0.1-0.4,0.2-0.7,0.2
				c-0.2,0-0.4-0.1-0.5-0.2c-0.1-0.1-0.3-0.3-0.5-0.5c-0.2-0.2-0.3-0.4-0.5-0.5c-0.2-0.1-0.5-0.2-0.8-0.2c-0.4,0-0.7,0.1-0.9,0.2
				c-0.2,0.2-0.4,0.3-0.4,0.6c0,0.2,0.1,0.4,0.3,0.5c0.2,0.1,0.4,0.2,0.7,0.3c0.3,0.1,0.7,0.2,1.2,0.3c0.6,0.2,1.1,0.3,1.5,0.5
				c0.4,0.2,0.7,0.5,0.9,0.7C325.3,781.1,325.4,781.4,325.4,781.8z"/>
			<path class="st3" d="M328.1,775.4c-0.3,0-0.5-0.1-0.7-0.3c-0.2-0.2-0.3-0.4-0.3-0.7c0-0.3,0.1-0.5,0.3-0.7
				c0.2-0.2,0.4-0.3,0.7-0.3c0.3,0,0.5,0.1,0.7,0.2c0.2,0.2,0.3,0.4,0.3,0.7c0,0.3-0.1,0.5-0.3,0.7
				C328.6,775.3,328.4,775.4,328.1,775.4z M329.1,777.4v5.8c0,0.4-0.1,0.7-0.3,0.9c-0.2,0.2-0.4,0.3-0.7,0.3c-0.3,0-0.5-0.1-0.7-0.3
				c-0.2-0.2-0.3-0.5-0.3-0.9v-5.7c0-0.4,0.1-0.7,0.3-0.9c0.2-0.2,0.4-0.3,0.7-0.3c0.3,0,0.5,0.1,0.7,0.3
				C329,776.8,329.1,777.1,329.1,777.4z"/>
			<path class="st3" d="M338.5,777.8v5.8c0,0.7-0.1,1.2-0.2,1.7c-0.1,0.5-0.4,0.9-0.7,1.2c-0.3,0.3-0.7,0.5-1.2,0.7
				c-0.5,0.1-1.1,0.2-1.9,0.2c-0.7,0-1.3-0.1-1.8-0.3c-0.5-0.2-1-0.4-1.2-0.7c-0.3-0.3-0.4-0.6-0.4-0.9c0-0.2,0.1-0.4,0.2-0.6
				c0.2-0.2,0.4-0.2,0.6-0.2c0.3,0,0.5,0.1,0.8,0.4c0.1,0.1,0.2,0.3,0.3,0.4c0.1,0.1,0.2,0.2,0.4,0.3c0.1,0.1,0.3,0.2,0.5,0.2
				c0.2,0,0.4,0.1,0.7,0.1c0.5,0,0.9-0.1,1.2-0.2c0.3-0.1,0.5-0.3,0.6-0.6c0.1-0.3,0.2-0.5,0.2-0.8c0-0.3,0-0.8,0-1.4
				c-0.3,0.4-0.7,0.8-1.1,1c-0.4,0.2-0.9,0.3-1.4,0.3c-0.7,0-1.2-0.2-1.7-0.5c-0.5-0.3-0.9-0.8-1.1-1.4c-0.3-0.6-0.4-1.3-0.4-2.1
				c0-0.6,0.1-1.1,0.2-1.6c0.2-0.5,0.4-0.9,0.7-1.2c0.3-0.3,0.6-0.6,1-0.7c0.4-0.2,0.8-0.3,1.3-0.3c0.6,0,1.1,0.1,1.5,0.3
				c0.4,0.2,0.8,0.6,1.2,1v-0.3c0-0.3,0.1-0.6,0.3-0.8c0.2-0.2,0.4-0.3,0.7-0.3c0.4,0,0.6,0.1,0.8,0.4
				C338.4,776.9,338.5,777.3,338.5,777.8z M332.7,780.3c0,0.8,0.2,1.4,0.5,1.8c0.4,0.4,0.8,0.6,1.4,0.6c0.3,0,0.6-0.1,0.9-0.3
				c0.3-0.2,0.5-0.4,0.7-0.8c0.2-0.4,0.3-0.8,0.3-1.3c0-0.8-0.2-1.4-0.5-1.9c-0.4-0.5-0.8-0.7-1.4-0.7c-0.6,0-1,0.2-1.4,0.6
				C332.9,778.9,332.7,779.5,332.7,780.3z"/>
			<path class="st3" d="M342.3,777.4v0.2c0.4-0.5,0.7-0.8,1.1-1c0.4-0.2,0.9-0.3,1.4-0.3c0.5,0,1,0.1,1.4,0.3c0.4,0.2,0.7,0.5,0.9,1
				c0.1,0.2,0.2,0.5,0.3,0.8c0,0.3,0.1,0.6,0.1,1.1v3.7c0,0.4-0.1,0.7-0.3,0.9c-0.2,0.2-0.4,0.3-0.7,0.3c-0.3,0-0.5-0.1-0.7-0.3
				c-0.2-0.2-0.3-0.5-0.3-0.9v-3.3c0-0.7-0.1-1.2-0.3-1.5c-0.2-0.3-0.5-0.5-1.1-0.5c-0.4,0-0.7,0.1-1,0.3c-0.3,0.2-0.5,0.5-0.6,0.9
				c-0.1,0.3-0.1,0.9-0.1,1.7v2.5c0,0.4-0.1,0.7-0.3,0.9c-0.2,0.2-0.4,0.3-0.7,0.3c-0.3,0-0.5-0.1-0.7-0.3c-0.2-0.2-0.3-0.5-0.3-0.9
				v-5.8c0-0.4,0.1-0.7,0.2-0.9c0.2-0.2,0.4-0.3,0.7-0.3c0.2,0,0.3,0,0.5,0.1c0.1,0.1,0.3,0.2,0.3,0.4
				C342.3,777,342.3,777.2,342.3,777.4z"/>
			<path class="st3" d="M355.1,780.8h-3.9c0,0.5,0.1,0.9,0.3,1.2c0.2,0.3,0.4,0.6,0.7,0.8c0.3,0.2,0.6,0.3,1,0.3
				c0.2,0,0.5,0,0.7-0.1c0.2-0.1,0.4-0.1,0.6-0.3c0.2-0.1,0.4-0.2,0.5-0.4c0.2-0.1,0.4-0.3,0.6-0.6c0.1-0.1,0.2-0.1,0.4-0.1
				c0.2,0,0.4,0.1,0.5,0.2c0.1,0.1,0.2,0.3,0.2,0.5c0,0.2-0.1,0.4-0.2,0.6c-0.1,0.2-0.4,0.5-0.6,0.7c-0.3,0.2-0.6,0.4-1.1,0.5
				c-0.4,0.1-0.9,0.2-1.5,0.2c-1.3,0-2.3-0.4-3-1.1c-0.7-0.7-1.1-1.7-1.1-3c0-0.6,0.1-1.1,0.3-1.6c0.2-0.5,0.4-0.9,0.8-1.3
				c0.3-0.4,0.7-0.6,1.2-0.8c0.5-0.2,1-0.3,1.6-0.3c0.8,0,1.4,0.2,2,0.5c0.6,0.3,1,0.8,1.3,1.3c0.3,0.5,0.4,1.1,0.4,1.6
				c0,0.5-0.1,0.8-0.4,1C356,780.8,355.6,780.8,355.1,780.8z M351.2,779.7h3.6c0-0.7-0.2-1.2-0.6-1.5c-0.3-0.3-0.7-0.5-1.3-0.5
				c-0.5,0-0.9,0.2-1.2,0.5C351.4,778.5,351.2,779,351.2,779.7z"/>
			<path class="st3" d="M363.8,783.3v-0.2c-0.3,0.3-0.5,0.6-0.8,0.7c-0.3,0.2-0.5,0.3-0.8,0.4c-0.3,0.1-0.6,0.1-1,0.1
				c-0.5,0-0.9-0.1-1.3-0.3c-0.4-0.2-0.8-0.5-1.1-0.9c-0.3-0.4-0.5-0.8-0.7-1.3c-0.2-0.5-0.2-1.1-0.2-1.6c0-1.2,0.3-2.2,0.9-2.9
				c0.6-0.7,1.4-1,2.4-1c0.6,0,1.1,0.1,1.4,0.3c0.4,0.2,0.8,0.5,1.2,0.9v-2.9c0-0.4,0.1-0.7,0.2-0.9c0.2-0.2,0.4-0.3,0.7-0.3
				c0.3,0,0.5,0.1,0.7,0.3c0.2,0.2,0.2,0.5,0.2,0.8v8.8c0,0.4-0.1,0.7-0.3,0.9c-0.2,0.2-0.4,0.3-0.7,0.3c-0.3,0-0.5-0.1-0.7-0.3
				C363.9,783.9,363.8,783.6,363.8,783.3z M359.9,780.3c0,0.5,0.1,1,0.3,1.4c0.2,0.4,0.4,0.7,0.7,0.9c0.3,0.2,0.6,0.3,1,0.3
				c0.4,0,0.7-0.1,1-0.3c0.3-0.2,0.5-0.5,0.7-0.8c0.2-0.4,0.3-0.8,0.3-1.4c0-0.5-0.1-1-0.3-1.4c-0.2-0.4-0.4-0.7-0.7-0.9
				c-0.3-0.2-0.6-0.3-1-0.3c-0.4,0-0.7,0.1-1,0.3c-0.3,0.2-0.5,0.5-0.7,0.9C360,779.4,359.9,779.8,359.9,780.3z"/>
			<path class="st3" d="M373.3,774.5v3c0.4-0.4,0.8-0.7,1.1-0.9c0.4-0.2,0.9-0.3,1.4-0.3c0.7,0,1.2,0.2,1.7,0.5
				c0.5,0.3,0.9,0.8,1.2,1.4c0.3,0.6,0.4,1.3,0.4,2.1c0,0.6-0.1,1.2-0.2,1.7c-0.2,0.5-0.4,0.9-0.7,1.3c-0.3,0.4-0.6,0.7-1.1,0.9
				c-0.4,0.2-0.9,0.3-1.4,0.3c-0.3,0-0.6,0-0.9-0.1c-0.3-0.1-0.5-0.2-0.7-0.3c-0.2-0.1-0.4-0.2-0.5-0.4c-0.1-0.1-0.3-0.3-0.5-0.6
				v0.2c0,0.4-0.1,0.7-0.3,0.9c-0.2,0.2-0.4,0.3-0.7,0.3c-0.3,0-0.5-0.1-0.7-0.3c-0.2-0.2-0.3-0.5-0.3-0.9v-8.7
				c0-0.4,0.1-0.7,0.2-0.9c0.2-0.2,0.4-0.3,0.7-0.3c0.3,0,0.5,0.1,0.7,0.3C373.2,773.8,373.3,774.1,373.3,774.5z M373.4,780.4
				c0,0.8,0.2,1.4,0.5,1.8c0.4,0.4,0.8,0.6,1.4,0.6c0.5,0,0.9-0.2,1.3-0.7c0.4-0.4,0.5-1.1,0.5-1.9c0-0.5-0.1-1-0.2-1.4
				c-0.2-0.4-0.4-0.7-0.6-0.9c-0.3-0.2-0.6-0.3-1-0.3c-0.4,0-0.7,0.1-1,0.3c-0.3,0.2-0.5,0.5-0.7,0.9
				C373.5,779.4,373.4,779.9,373.4,780.4z"/>
			<path class="st3" d="M382.4,784.7l0.2-0.4l-2.4-6.2c-0.2-0.4-0.2-0.6-0.2-0.8c0-0.2,0-0.3,0.1-0.5c0.1-0.1,0.2-0.3,0.4-0.3
				c0.2-0.1,0.3-0.1,0.5-0.1c0.3,0,0.5,0.1,0.6,0.3c0.1,0.2,0.3,0.4,0.4,0.8l1.7,4.9l1.6-4.6c0.1-0.4,0.2-0.7,0.3-0.9
				c0.1-0.2,0.2-0.3,0.3-0.4c0.1-0.1,0.3-0.1,0.5-0.1c0.2,0,0.3,0,0.4,0.1c0.1,0.1,0.2,0.2,0.3,0.3c0.1,0.1,0.1,0.3,0.1,0.4
				c0,0.1-0.1,0.2-0.1,0.4c0,0.2-0.1,0.3-0.2,0.5l-2.6,6.8c-0.2,0.6-0.4,1.1-0.7,1.4c-0.2,0.3-0.5,0.6-0.8,0.8
				c-0.4,0.2-0.8,0.3-1.4,0.3c-0.6,0-1-0.1-1.3-0.2c-0.3-0.1-0.4-0.4-0.4-0.7c0-0.2,0.1-0.4,0.2-0.5c0.1-0.1,0.3-0.2,0.6-0.2
				c0.1,0,0.2,0,0.3,0c0.1,0,0.2,0,0.3,0c0.2,0,0.4,0,0.5-0.1c0.1-0.1,0.3-0.2,0.4-0.4C382.1,785.2,382.3,785,382.4,784.7z"/>
		</g>
		<g>
			<path class="st3" d="M419.2,776.5h0.5v-0.6c0-0.6,0.1-1.1,0.2-1.5c0.2-0.4,0.4-0.6,0.8-0.8c0.4-0.2,0.9-0.3,1.5-0.3
				c1.2,0,1.7,0.3,1.7,0.9c0,0.2-0.1,0.3-0.2,0.5c-0.1,0.1-0.3,0.2-0.4,0.2c-0.1,0-0.2,0-0.4,0c-0.2,0-0.3,0-0.5,0
				c-0.4,0-0.6,0.1-0.7,0.3c-0.1,0.2-0.2,0.5-0.2,0.9v0.5h0.5c0.8,0,1.1,0.2,1.1,0.7c0,0.3-0.1,0.5-0.3,0.6
				c-0.2,0.1-0.5,0.1-0.8,0.1h-0.5v5.3c0,0.4-0.1,0.7-0.3,0.9c-0.2,0.2-0.4,0.3-0.7,0.3c-0.3,0-0.5-0.1-0.7-0.3
				c-0.2-0.2-0.3-0.5-0.3-0.9v-5.3h-0.5c-0.3,0-0.5-0.1-0.7-0.2c-0.2-0.1-0.2-0.3-0.2-0.5C418.2,776.7,418.6,776.5,419.2,776.5z"/>
			<path class="st3" d="M426.3,781.5v1.7c0,0.4-0.1,0.7-0.3,0.9c-0.2,0.2-0.4,0.3-0.7,0.3c-0.3,0-0.5-0.1-0.7-0.3
				c-0.2-0.2-0.3-0.5-0.3-0.9v-5.5c0-0.9,0.3-1.3,1-1.3c0.3,0,0.6,0.1,0.7,0.3c0.1,0.2,0.2,0.5,0.2,0.9c0.2-0.4,0.5-0.7,0.7-0.9
				c0.2-0.2,0.6-0.3,1-0.3c0.4,0,0.8,0.1,1.2,0.3c0.4,0.2,0.6,0.5,0.6,0.8c0,0.2-0.1,0.4-0.3,0.6c-0.2,0.2-0.3,0.2-0.5,0.2
				c-0.1,0-0.3,0-0.5-0.1c-0.3-0.1-0.5-0.1-0.7-0.1c-0.3,0-0.5,0.1-0.7,0.2c-0.2,0.2-0.3,0.4-0.4,0.7c-0.1,0.3-0.2,0.7-0.2,1.1
				C426.4,780.4,426.3,780.9,426.3,781.5z"/>
			<path class="st3" d="M436.1,780.8h-3.9c0,0.5,0.1,0.9,0.3,1.2c0.2,0.3,0.4,0.6,0.7,0.8c0.3,0.2,0.6,0.3,1,0.3
				c0.2,0,0.5,0,0.7-0.1c0.2-0.1,0.4-0.1,0.6-0.3c0.2-0.1,0.4-0.2,0.5-0.4c0.2-0.1,0.4-0.3,0.6-0.6c0.1-0.1,0.3-0.1,0.4-0.1
				c0.2,0,0.4,0.1,0.5,0.2c0.1,0.1,0.2,0.3,0.2,0.5c0,0.2-0.1,0.4-0.2,0.6c-0.1,0.2-0.4,0.5-0.6,0.7c-0.3,0.2-0.6,0.4-1.1,0.5
				c-0.4,0.1-0.9,0.2-1.5,0.2c-1.3,0-2.3-0.4-3-1.1c-0.7-0.7-1.1-1.7-1.1-3c0-0.6,0.1-1.1,0.3-1.6c0.2-0.5,0.4-0.9,0.8-1.3
				c0.3-0.4,0.8-0.6,1.2-0.8c0.5-0.2,1-0.3,1.6-0.3c0.8,0,1.4,0.2,2,0.5c0.6,0.3,1,0.8,1.3,1.3c0.3,0.5,0.4,1.1,0.4,1.6
				c0,0.5-0.1,0.8-0.4,1C437,780.8,436.6,780.8,436.1,780.8z M432.2,779.7h3.6c-0.1-0.7-0.2-1.2-0.5-1.5c-0.3-0.3-0.7-0.5-1.3-0.5
				c-0.5,0-0.9,0.2-1.2,0.5C432.5,778.5,432.3,779,432.2,779.7z"/>
			<path class="st3" d="M445,780.8h-3.9c0,0.5,0.1,0.9,0.3,1.2c0.2,0.3,0.4,0.6,0.7,0.8c0.3,0.2,0.6,0.3,1,0.3c0.2,0,0.5,0,0.7-0.1
				c0.2-0.1,0.4-0.1,0.6-0.3c0.2-0.1,0.4-0.2,0.5-0.4c0.2-0.1,0.4-0.3,0.6-0.6c0.1-0.1,0.2-0.1,0.4-0.1c0.2,0,0.4,0.1,0.5,0.2
				c0.1,0.1,0.2,0.3,0.2,0.5c0,0.2-0.1,0.4-0.2,0.6c-0.1,0.2-0.4,0.5-0.6,0.7c-0.3,0.2-0.6,0.4-1.1,0.5c-0.4,0.1-0.9,0.2-1.5,0.2
				c-1.3,0-2.3-0.4-3-1.1c-0.7-0.7-1.1-1.7-1.1-3c0-0.6,0.1-1.1,0.3-1.6c0.2-0.5,0.4-0.9,0.8-1.3c0.3-0.4,0.7-0.6,1.2-0.8
				c0.5-0.2,1-0.3,1.6-0.3c0.8,0,1.4,0.2,2,0.5c0.6,0.3,1,0.8,1.2,1.3c0.3,0.5,0.4,1.1,0.4,1.6c0,0.5-0.1,0.8-0.4,1
				C445.9,780.8,445.5,780.8,445,780.8z M441.1,779.7h3.6c0-0.7-0.2-1.2-0.6-1.5c-0.3-0.3-0.7-0.5-1.3-0.5c-0.5,0-0.9,0.2-1.2,0.5
				C441.3,778.5,441.1,779,441.1,779.7z"/>
			<path class="st3" d="M449.9,777.4v0.2c0.4-0.5,0.8-0.8,1.2-1c0.4-0.2,0.9-0.3,1.4-0.3c0.6,0,1.2,0.2,1.7,0.5
				c0.5,0.3,0.9,0.8,1.2,1.4c0.3,0.6,0.4,1.3,0.4,2.2c0,0.6-0.1,1.2-0.3,1.7c-0.2,0.5-0.4,0.9-0.7,1.3c-0.3,0.3-0.7,0.6-1.1,0.8
				c-0.4,0.2-0.9,0.3-1.3,0.3c-0.6,0-1-0.1-1.4-0.3c-0.4-0.2-0.8-0.6-1.1-1v3c0,0.9-0.3,1.3-1,1.3c-0.4,0-0.6-0.1-0.7-0.3
				c-0.1-0.2-0.2-0.6-0.2-1v-8.6c0-0.4,0.1-0.7,0.2-0.9c0.2-0.2,0.4-0.3,0.7-0.3c0.3,0,0.5,0.1,0.7,0.3
				C449.8,776.8,449.9,777.1,449.9,777.4z M453.8,780.3c0-0.5-0.1-1-0.2-1.4c-0.2-0.4-0.4-0.7-0.7-0.9c-0.3-0.2-0.6-0.3-0.9-0.3
				c-0.5,0-1,0.2-1.4,0.6c-0.4,0.4-0.6,1.1-0.6,1.9c0,0.8,0.2,1.4,0.6,1.8c0.4,0.4,0.8,0.7,1.4,0.7c0.3,0,0.6-0.1,0.9-0.3
				c0.3-0.2,0.5-0.5,0.7-0.9C453.7,781.3,453.8,780.9,453.8,780.3z"/>
			<path class="st3" d="M458.4,775.4c-0.3,0-0.5-0.1-0.7-0.3c-0.2-0.2-0.3-0.4-0.3-0.7c0-0.3,0.1-0.5,0.3-0.7
				c0.2-0.2,0.4-0.3,0.7-0.3c0.3,0,0.5,0.1,0.7,0.2c0.2,0.2,0.3,0.4,0.3,0.7c0,0.3-0.1,0.5-0.3,0.7
				C458.9,775.3,458.7,775.4,458.4,775.4z M459.4,777.4v5.8c0,0.4-0.1,0.7-0.3,0.9c-0.2,0.2-0.4,0.3-0.7,0.3c-0.3,0-0.5-0.1-0.7-0.3
				c-0.2-0.2-0.3-0.5-0.3-0.9v-5.7c0-0.4,0.1-0.7,0.3-0.9c0.2-0.2,0.4-0.3,0.7-0.3c0.3,0,0.5,0.1,0.7,0.3
				C459.3,776.8,459.4,777.1,459.4,777.4z"/>
			<path class="st3" d="M466.4,783.5l-1.8-2.9l-1.1,1v1.6c0,0.4-0.1,0.7-0.3,0.9c-0.2,0.2-0.4,0.3-0.7,0.3c-0.3,0-0.5-0.1-0.7-0.3
				c-0.2-0.2-0.3-0.5-0.3-0.9v-8.5c0-0.4,0.1-0.8,0.3-1c0.2-0.2,0.4-0.3,0.7-0.3c0.3,0,0.5,0.1,0.7,0.3c0.2,0.2,0.3,0.5,0.3,0.9v4.8
				l2.2-2.3c0.3-0.3,0.5-0.5,0.6-0.6c0.1-0.1,0.3-0.2,0.5-0.2c0.2,0,0.5,0.1,0.6,0.2c0.2,0.2,0.3,0.4,0.3,0.6c0,0.3-0.3,0.7-0.8,1.2
				l-1.1,1l2,3.2c0.2,0.2,0.3,0.4,0.3,0.5c0.1,0.1,0.1,0.2,0.1,0.4c0,0.3-0.1,0.6-0.3,0.7c-0.2,0.2-0.4,0.3-0.7,0.3
				c-0.2,0-0.4-0.1-0.6-0.2C466.8,784.1,466.6,783.8,466.4,783.5z"/>
			<path class="st3" d="M471.3,784.4c-0.3,0-0.6-0.1-0.8-0.3c-0.2-0.2-0.3-0.5-0.3-0.8c0-0.3,0.1-0.6,0.3-0.8
				c0.2-0.2,0.5-0.3,0.8-0.3s0.6,0.1,0.8,0.3c0.2,0.2,0.3,0.5,0.3,0.8c0,0.3-0.1,0.6-0.3,0.8C471.9,784.3,471.6,784.4,471.3,784.4z"
				/>
			<path class="st3" d="M481.8,781.9c0,0.2-0.1,0.5-0.2,0.8c-0.1,0.3-0.4,0.5-0.7,0.8c-0.3,0.3-0.7,0.5-1.1,0.6
				c-0.5,0.2-1,0.2-1.6,0.2c-1.2,0-2.2-0.4-2.9-1.1c-0.7-0.7-1-1.7-1-2.9c0-0.8,0.2-1.5,0.5-2.2c0.3-0.6,0.8-1.1,1.4-1.5
				c0.6-0.3,1.3-0.5,2.1-0.5c0.5,0,1,0.1,1.4,0.2c0.4,0.2,0.8,0.3,1.1,0.6c0.3,0.2,0.5,0.5,0.7,0.8c0.2,0.3,0.2,0.5,0.2,0.8
				c0,0.2-0.1,0.4-0.3,0.6c-0.2,0.2-0.4,0.2-0.6,0.2c-0.2,0-0.3,0-0.4-0.1c-0.1-0.1-0.2-0.2-0.4-0.4c-0.2-0.4-0.5-0.6-0.8-0.8
				c-0.3-0.2-0.6-0.3-1-0.3c-0.6,0-1.1,0.2-1.4,0.7c-0.4,0.5-0.5,1.1-0.5,1.9c0,0.4,0,0.7,0.1,1c0.1,0.3,0.2,0.6,0.4,0.8
				c0.2,0.2,0.4,0.4,0.6,0.5c0.2,0.1,0.5,0.2,0.8,0.2c0.4,0,0.7-0.1,1-0.3c0.3-0.2,0.5-0.5,0.8-0.8c0.1-0.2,0.3-0.4,0.4-0.5
				c0.1-0.1,0.3-0.2,0.5-0.2c0.2,0,0.4,0.1,0.6,0.3C481.7,781.5,481.8,781.7,481.8,781.9z"/>
			<path class="st3" d="M491,780.4c0,0.6-0.1,1.1-0.3,1.6c-0.2,0.5-0.5,0.9-0.8,1.3c-0.3,0.4-0.8,0.6-1.3,0.8
				c-0.5,0.2-1,0.3-1.6,0.3c-0.6,0-1.1-0.1-1.6-0.3c-0.5-0.2-0.9-0.5-1.2-0.8c-0.4-0.4-0.6-0.8-0.8-1.3c-0.2-0.5-0.3-1-0.3-1.6
				c0-0.6,0.1-1.2,0.3-1.7c0.2-0.5,0.4-0.9,0.8-1.3c0.3-0.4,0.8-0.6,1.3-0.8c0.5-0.2,1-0.3,1.6-0.3c0.6,0,1.1,0.1,1.6,0.3
				c0.5,0.2,0.9,0.5,1.3,0.8c0.3,0.4,0.6,0.8,0.8,1.3C490.9,779.2,491,779.8,491,780.4z M489,780.4c0-0.8-0.2-1.4-0.5-1.9
				c-0.4-0.5-0.8-0.7-1.4-0.7c-0.4,0-0.7,0.1-1,0.3c-0.3,0.2-0.5,0.5-0.7,0.9c-0.2,0.4-0.2,0.9-0.2,1.4c0,0.5,0.1,1,0.2,1.4
				c0.2,0.4,0.4,0.7,0.7,0.9c0.3,0.2,0.6,0.3,1,0.3c0.6,0,1.1-0.2,1.4-0.7C488.8,781.8,489,781.2,489,780.4z"/>
			<path class="st3" d="M499.2,780.5v2.6c0,0.4-0.1,0.7-0.3,0.9c-0.2,0.2-0.4,0.3-0.8,0.3c-0.3,0-0.5-0.1-0.7-0.3
				c-0.2-0.2-0.3-0.5-0.3-0.9V780c0-0.5,0-0.9-0.1-1.2c0-0.3-0.1-0.5-0.3-0.7c-0.2-0.2-0.4-0.3-0.7-0.3c-0.7,0-1.1,0.2-1.3,0.7
				c-0.2,0.4-0.3,1.1-0.3,1.9v2.7c0,0.4-0.1,0.7-0.3,0.9c-0.2,0.2-0.4,0.3-0.7,0.3c-0.3,0-0.5-0.1-0.7-0.3c-0.2-0.2-0.3-0.5-0.3-0.9
				v-5.7c0-0.4,0.1-0.7,0.3-0.9c0.2-0.2,0.4-0.3,0.7-0.3c0.3,0,0.5,0.1,0.7,0.3c0.2,0.2,0.3,0.4,0.3,0.8v0.2
				c0.3-0.4,0.7-0.7,1.1-0.9c0.4-0.2,0.8-0.3,1.3-0.3c0.5,0,0.9,0.1,1.3,0.3c0.4,0.2,0.7,0.5,0.9,0.9c0.3-0.4,0.7-0.7,1.1-0.9
				c0.4-0.2,0.8-0.3,1.3-0.3c0.5,0,1,0.1,1.4,0.3c0.4,0.2,0.7,0.5,0.9,0.9c0.2,0.4,0.3,0.9,0.3,1.7v3.9c0,0.4-0.1,0.7-0.3,0.9
				c-0.2,0.2-0.4,0.3-0.8,0.3c-0.3,0-0.5-0.1-0.7-0.3c-0.2-0.2-0.3-0.5-0.3-0.9v-3.3c0-0.4,0-0.8-0.1-1c0-0.3-0.1-0.5-0.3-0.6
				c-0.2-0.2-0.4-0.3-0.7-0.3c-0.3,0-0.5,0.1-0.8,0.2c-0.2,0.2-0.4,0.4-0.5,0.6C499.3,779.1,499.2,779.6,499.2,780.5z"/>
		</g>
		<g>
			<path class="st3" d="M403.6,771.2c0-0.1-0.1-0.3-0.1-0.4c0.7-0.1,1.1-0.9,0.8-1.5c-0.3-0.7-1.3-0.8-1.7-0.1
				c-0.4,0.5-0.1,1.4,0.6,1.6c0,0.1,0.1,0.3,0.1,0.4c-1,0.1-2,0.3-2.9,0.9c0.1,0.2,0.2,0.5,0.3,0.7c1.7-0.7,3.6-0.6,5.4-0.4
				c0.1-0.2,0.1-0.5,0.2-0.7C405.3,771.3,404.4,771.2,403.6,771.2z"/>
			<path class="st3" d="M413.6,773.9c-0.3,0.1-0.3,0.5-0.3,0.7c-0.3,0.3-0.2,0.7-0.2,1.1c-0.1,0.2-0.3,0.2-0.5,0.3
				c-0.2-0.4-0.5-0.7-0.8-1l0,0c-0.3-0.3-0.7-0.6-1.1-0.9c-0.3,0.3-0.6,0.7-0.9,1c0.6,0.7,1.2,1.4,1.6,2.1c0.3,0.6,0.6,1.2,0.8,1.8
				c0.5-0.3,1-0.5,1.5-0.8c-0.3-0.6-0.6-1.2-0.9-1.8c0.2-0.1,0.5-0.2,0.6-0.5c0-0.3,0-0.7,0.1-1c0.4,0.3,1,0,1-0.5
				C414.7,774,414,773.6,413.6,773.9z"/>
			<path class="st3" d="M410.9,777.6c-0.7-1.1-1.4-2.2-2.3-3c-1.1-1-2.6-1.6-4.1-1.6c-1.9,0-3.8,0.3-5.6,1c-1.7,0.7-3.1,2-3.8,3.7
				c-0.7,1.5-0.7,3.2-0.4,4.8c1.8,0.4,3.5,0.8,5.3,0.9c1.8,0.1,3.6,0.1,5.3-0.2c2.4-0.3,4.8-1.1,6.9-2.3
				C412.3,780.9,412,779.3,410.9,777.6z M402.3,779.7c-0.3,0.5-0.8,0.9-1.3,1.1c-1,0.4-2.3,0.1-3-0.7c-0.5-0.6-0.8-1.3-0.8-2.1
				c0-1,0.6-1.9,1.5-2.3c0.6-0.4,1.4-0.4,2.1-0.2c0.3,0.1,0.6,0.2,0.8,0.4c0.5,0.4,0.9,0.9,1.1,1.5
				C402.9,778.2,402.8,779,402.3,779.7z M409.7,778c-0.1,0.8-0.9,1.5-1.7,1.5c-0.5,0-1-0.2-1.3-0.5c-0.2-0.3-0.4-0.6-0.5-1
				c-0.1-0.8,0.5-1.7,1.3-1.9c0.4-0.1,0.7,0,1.1,0C409.3,776.3,409.8,777.2,409.7,778z"/>
			<path class="st3" d="M395.1,775.1c-0.7,0.4-1.3,1-1.8,1.7c-0.1-0.3-0.2-0.6-0.4-0.8c-0.1-0.1-0.3-0.1-0.4-0.1
				c-0.2,0-0.4,0-0.5-0.1c0.2-0.3,0.2-0.7-0.2-0.9c-0.3-0.2-0.9,0-1,0.4c-0.1,0.4,0.3,0.9,0.8,0.8c0.2,0.3,0.6,0.3,1,0.3
				c0.2,0.3,0.3,0.6,0.5,0.8c-0.4,0.8-0.6,1.6-0.6,2.4c0.5,0.2,1,0.4,1.5,0.6c0-0.5,0.1-1.1,0.2-1.6c0.2-1.1,0.8-2.1,1.6-3
				C395.6,775.5,395.3,775.3,395.1,775.1z"/>
			<path class="st3" d="M406.6,783.8c-1.8,0.4-3.7,0.5-5.5,0.4c-1.2-0.1-2.5-0.2-3.7-0.4c-0.9-0.2-1.7-0.4-2.6-0.7
				c0.1,1.1,0.6,2.1,1.2,3c0.7,1,1.7,2,3,2.4c1,0.3,2.1,0.6,4.1,0.6c1.6,0,3.2-0.2,4.7-0.8c0.9-0.4,1.8-0.9,2.5-1.6
				c0.6-0.6,1.1-1.4,1.5-2.2c0.3-0.8,0.6-2.1,0.6-2.8C410.6,782.5,408.6,783.4,406.6,783.8z"/>
		</g>
	</g>
</g>
</svg>
